<?plantuml 1.2026.2?><svg xmlns="http://www.w3.org/2000/svg" xmlns:xlink="http://www.w3.org/1999/xlink" contentStyleType="text/css" data-diagram-type="CHEN_EER" height="269px" preserveAspectRatio="none" style="width:2817px;height:269px;" version="1.1" viewBox="0 0 2817 269" width="2817px" zoomAndPan="magnify"><defs/><g><g><rect fill="#F1F1F1" height="39.0679" style="stroke:#181818;stroke-width:0.5;" width="75.0478" x="369.52" y="224.57"/><text fill="#000000" font-family="sans-serif" font-size="14" lengthAdjust="spacing" textLength="55.0478" x="379.52" y="249.5359">tramites</text></g><g><ellipse cx="127.0429" cy="147.0143" fill="#F1F1F1" rx="16.3929" ry="13.7143" style="stroke:#181818;stroke-width:0.5;"/><text fill="#000000" font-family="sans-serif" font-size="14" lengthAdjust="spacing" text-decoration="underline" textLength="12.222" x="120.9319" y="154.2659">id</text></g><g><ellipse cx="219.043" cy="147.0131" fill="#F1F1F1" rx="40.123" ry="16.4831" style="stroke:#181818;stroke-width:0.5;"/><text fill="#000000" font-family="sans-serif" font-size="14" lengthAdjust="spacing" textLength="52.4998" x="192.7931" y="151.4959">nombre</text></g><g><ellipse cx="350.0386" cy="147.0131" fill="#F1F1F1" rx="56.3086" ry="16.4831" style="stroke:#181818;stroke-width:0.5;"/><text fill="#000000" font-family="sans-serif" font-size="14" lengthAdjust="spacing" textLength="75.3897" x="312.3437" y="151.4959">descripci&#243;n</text></g><g><ellipse cx="463.0351" cy="147.0131" fill="#F1F1F1" rx="21.2051" ry="16.4831" style="stroke:#181818;stroke-width:0.5;"/><text fill="#000000" font-family="sans-serif" font-size="14" lengthAdjust="spacing" textLength="25.7459" x="450.1622" y="151.4959">tipo</text></g><g><ellipse cx="554.0398" cy="147.0131" fill="#F1F1F1" rx="34.5298" ry="16.4831" style="stroke:#181818;stroke-width:0.5;"/><text fill="#000000" font-family="sans-serif" font-size="14" lengthAdjust="spacing" textLength="44.5898" x="531.7449" y="151.4959">estado</text></g><g><ellipse cx="694.0374" cy="147.0135" fill="#F1F1F1" rx="70.8174" ry="16.5635" style="stroke:#181818;stroke-width:0.5;"/><text fill="#000000" font-family="sans-serif" font-size="14" lengthAdjust="spacing" textLength="96.4736" x="645.8006" y="151.4159">procedimiento</text></g><g><rect fill="#F1F1F1" height="39.0679" style="stroke:#181818;stroke-width:0.5;" width="84.6098" x="2312.73" y="224.57"/><text fill="#000000" font-family="sans-serif" font-size="14" lengthAdjust="spacing" textLength="64.6098" x="2322.73" y="249.5359">resources</text></g><g><ellipse cx="2416.0429" cy="147.0143" fill="#F1F1F1" rx="16.3929" ry="13.7143" style="stroke:#181818;stroke-width:0.5;"/><text fill="#000000" font-family="sans-serif" font-size="14" lengthAdjust="spacing" text-decoration="underline" textLength="12.222" x="2409.9319" y="154.2659">id</text></g><g><ellipse cx="2508.043" cy="147.0131" fill="#F1F1F1" rx="40.123" ry="16.4831" style="stroke:#181818;stroke-width:0.5;"/><text fill="#000000" font-family="sans-serif" font-size="14" lengthAdjust="spacing" textLength="52.4998" x="2481.7931" y="151.4959">nombre</text></g><g><ellipse cx="2238.0381" cy="147.0131" fill="#F1F1F1" rx="47.4981" ry="16.4831" style="stroke:#181818;stroke-width:0.5;"/><text fill="#000000" font-family="sans-serif" font-size="14" lengthAdjust="spacing" textLength="62.9297" x="2206.5732" y="151.4959">filter_rule</text></g><g><rect fill="#F1F1F1" height="39.0679" style="stroke:#181818;stroke-width:0.5;" width="76.4338" x="1764.82" y="224.57"/><text fill="#000000" font-family="sans-serif" font-size="14" lengthAdjust="spacing" textLength="56.4338" x="1774.82" y="249.5359">usuarios</text></g><g><ellipse cx="1864.0429" cy="147.0143" fill="#F1F1F1" rx="16.3929" ry="13.7143" style="stroke:#181818;stroke-width:0.5;"/><text fill="#000000" font-family="sans-serif" font-size="14" lengthAdjust="spacing" text-decoration="underline" textLength="12.222" x="1857.9319" y="154.2659">id</text></g><g><ellipse cx="1956.043" cy="147.0131" fill="#F1F1F1" rx="40.123" ry="16.4831" style="stroke:#181818;stroke-width:0.5;"/><text fill="#000000" font-family="sans-serif" font-size="14" lengthAdjust="spacing" textLength="52.4998" x="1929.7931" y="151.4959">nombre</text></g><g><ellipse cx="1476.0403" cy="147.0131" fill="#F1F1F1" rx="33.4903" ry="16.4831" style="stroke:#181818;stroke-width:0.5;"/><text fill="#000000" font-family="sans-serif" font-size="14" lengthAdjust="spacing" textLength="43.1198" x="1454.4804" y="151.4959">correo</text></g><g><ellipse cx="1600.0411" cy="147.0131" fill="#F1F1F1" rx="55.0711" ry="16.4831" style="stroke:#181818;stroke-width:0.5;"/><text fill="#000000" font-family="sans-serif" font-size="14" lengthAdjust="spacing" textLength="73.6397" x="1563.2213" y="151.4959">contrase&#241;a</text></g><g><rect fill="#F1F1F1" height="39.0679" style="stroke:#181818;stroke-width:0.5;" width="52.4659" x="2652.81" y="224.57"/><text fill="#000000" font-family="sans-serif" font-size="14" lengthAdjust="spacing" textLength="32.4659" x="2662.81" y="249.5359">roles</text></g><g><ellipse cx="2679.0429" cy="147.0143" fill="#F1F1F1" rx="16.3929" ry="13.7143" style="stroke:#181818;stroke-width:0.5;"/><text fill="#000000" font-family="sans-serif" font-size="14" lengthAdjust="spacing" text-decoration="underline" textLength="12.222" x="2672.9319" y="154.2659">id</text></g><g><ellipse cx="2771.043" cy="147.0131" fill="#F1F1F1" rx="40.123" ry="16.4831" style="stroke:#181818;stroke-width:0.5;"/><text fill="#000000" font-family="sans-serif" font-size="14" lengthAdjust="spacing" textLength="52.4998" x="2744.7931" y="151.4959">nombre</text></g><g><rect fill="#F1F1F1" height="39.0679" style="stroke:#181818;stroke-width:0.5;" width="85.3097" x="1082.38" y="224.57"/><text fill="#000000" font-family="sans-serif" font-size="14" lengthAdjust="spacing" textLength="65.3097" x="1092.38" y="249.5359">tunkunias</text></g><g><ellipse cx="974.0429" cy="147.0143" fill="#F1F1F1" rx="16.3929" ry="13.7143" style="stroke:#181818;stroke-width:0.5;"/><text fill="#000000" font-family="sans-serif" font-size="14" lengthAdjust="spacing" text-decoration="underline" textLength="12.222" x="967.9319" y="154.2659">id</text></g><g><ellipse cx="1067.0445" cy="147.0131" fill="#F1F1F1" rx="41.9445" ry="16.4831" style="stroke:#181818;stroke-width:0.5;"/><text fill="#000000" font-family="sans-serif" font-size="14" lengthAdjust="spacing" textLength="55.0758" x="1039.5066" y="151.4959">marking</text></g><g><ellipse cx="1184.0381" cy="147.0131" fill="#F1F1F1" rx="39.6181" ry="16.4831" style="stroke:#181818;stroke-width:0.5;"/><text fill="#000000" font-family="sans-serif" font-size="14" lengthAdjust="spacing" textLength="51.7858" x="1158.1452" y="151.4959">eventos</text></g><g><ellipse cx="1293.0398" cy="147.0131" fill="#F1F1F1" rx="34.5298" ry="16.4831" style="stroke:#181818;stroke-width:0.5;"/><text fill="#000000" font-family="sans-serif" font-size="14" lengthAdjust="spacing" textLength="44.5898" x="1270.7449" y="151.4959">estado</text></g><g><polygon fill="#F1F1F1" points="530.43,37.7231,590.0361,7.92,649.6423,37.7231,590.0361,67.5261" style="stroke:#181818;stroke-width:0.5;"/><text fill="#000000" font-family="sans-serif" font-size="14" lengthAdjust="spacing" textLength="58.7158" x="560.6783" y="43.155">instancia</text></g><g><polygon fill="#F1F1F1" points="1953.59,37.7246,2017.0391,6,2080.4882,37.7246,2017.0391,69.4491" style="stroke:#181818;stroke-width:0.5;"/><text fill="#000000" font-family="sans-serif" font-size="14" lengthAdjust="spacing" textLength="66.4017" x="1983.8383" y="43.1565">pertenece</text></g><g><polygon fill="#F1F1F1" points="2390.5,37.7191,2445.0382,10.45,2499.5763,37.7191,2445.0382,64.9882" style="stroke:#181818;stroke-width:0.5;"/><text fill="#000000" font-family="sans-serif" font-size="14" lengthAdjust="spacing" textLength="48.5798" x="2420.7483" y="43.1511">cumple</text></g><g><polygon fill="#F1F1F1" points="1506.95,37.7251,1561.0402,10.68,1615.1303,37.7251,1561.0402,64.7702" style="stroke:#181818;stroke-width:0.5;"/><text fill="#000000" font-family="sans-serif" font-size="14" lengthAdjust="spacing" textLength="47.6838" x="1537.1983" y="43.1571">ejecuta</text></g><g><polygon fill="#F1F1F1" points="1035.05,37.7246,1086.0392,12.23,1137.0283,37.7246,1086.0392,63.2192" style="stroke:#181818;stroke-width:0.5;"/><text fill="#000000" font-family="sans-serif" font-size="14" lengthAdjust="spacing" textLength="41.4818" x="1065.2983" y="43.1566">define</text></g><!--link tramites/id to tramites--><g class="link" data-entity-1="ent0003" data-entity-2="ent0002" data-link-type="association" data-source-line="5" id="lnk4"><path d="M140.78,154.74 C146.91,157.63 154.26,160.94 161.04,163.57 C233.41,191.72 320.31,218.15 369.05,232.32" fill="none" id="tramites/id-tramites" style="stroke:#181818;stroke-width:1;"/></g><!--link tramites/nombre to tramites--><g class="link" data-entity-1="ent0005" data-entity-2="ent0002" data-link-type="association" data-source-line="6" id="lnk6"><path d="M243.62,160.44 C275.67,176.65 332.04,205.17 369.47,224.1" fill="none" id="tramites/nombre-tramites" style="stroke:#181818;stroke-width:1;"/></g><!--link tramites/descripci?n to tramites--><g class="link" data-entity-1="ent0007" data-entity-2="ent0002" data-link-type="association" data-source-line="7" id="lnk8"><path d="M359.45,163.71 C369.38,180.28 385.03,206.39 395.65,224.1" fill="none" id="tramites/descripci&#243;n-tramites" style="stroke:#181818;stroke-width:1;"/></g><!--link tramites/tipo to tramites--><g class="link" data-entity-1="ent0009" data-entity-2="ent0002" data-link-type="association" data-source-line="8" id="lnk10"><path d="M454.53,162.45 C444.8,178.97 428.84,206.09 418.14,224.26" fill="none" id="tramites/tipo-tramites" style="stroke:#181818;stroke-width:1;"/></g><!--link tramites/estado to tramites--><g class="link" data-entity-1="ent0011" data-entity-2="ent0002" data-link-type="association" data-source-line="9" id="lnk12"><path d="M534.21,160.83 C509.06,177.11 465.46,205.31 436.43,224.09" fill="none" id="tramites/estado-tramites" style="stroke:#181818;stroke-width:1;"/></g><!--link tramites/procedimiento to tramites--><g class="link" data-entity-1="ent0013" data-entity-2="ent0002" data-link-type="association" data-source-line="10" id="lnk14"><path d="M654.43,161.13 C599.08,179.47 499.26,212.55 444.87,230.57" fill="none" id="tramites/procedimiento-tramites" style="stroke:#181818;stroke-width:1;"/></g><!--link resources/id to resources--><g class="link" data-entity-1="ent0016" data-entity-2="ent0015" data-link-type="association" data-source-line="14" id="lnk17"><path d="M2408.56,159.67 C2398.25,175.74 2379.56,204.88 2367.22,224.12" fill="none" id="resources/id-resources" style="stroke:#181818;stroke-width:1;"/></g><!--link resources/nombre to resources--><g class="link" data-entity-1="ent0018" data-entity-2="ent0015" data-link-type="association" data-source-line="15" id="lnk19"><path d="M2486.77,161.23 C2460.49,177.56 2415.6,205.46 2385.63,224.09" fill="none" id="resources/nombre-resources" style="stroke:#181818;stroke-width:1;"/></g><!--link resources/filter_rule to resources--><g class="link" data-entity-1="ent0020" data-entity-2="ent0015" data-link-type="association" data-source-line="16" id="lnk21"><path d="M2256.06,162.66 C2276.45,179.23 2309.69,206.25 2331.96,224.35" fill="none" id="resources/filter_rule-resources" style="stroke:#181818;stroke-width:1;"/></g><!--link usuarios/id to usuarios--><g class="link" data-entity-1="ent0023" data-entity-2="ent0022" data-link-type="association" data-source-line="19" id="lnk24"><path d="M1856.56,159.67 C1846.25,175.74 1827.56,204.88 1815.22,224.12" fill="none" id="usuarios/id-usuarios" style="stroke:#181818;stroke-width:1;"/></g><!--link usuarios/nombre to usuarios--><g class="link" data-entity-1="ent0025" data-entity-2="ent0022" data-link-type="association" data-source-line="20" id="lnk26"><path d="M1934.77,161.23 C1908.49,177.56 1863.6,205.46 1833.63,224.09" fill="none" id="usuarios/nombre-usuarios" style="stroke:#181818;stroke-width:1;"/></g><!--link usuarios/correo to usuarios--><g class="link" data-entity-1="ent0027" data-entity-2="ent0022" data-link-type="association" data-source-line="21" id="lnk28"><path d="M1503.81,156.57 C1511.34,158.87 1519.5,161.33 1527.04,163.57 C1611.66,188.67 1711.21,217.09 1764.59,232.23" fill="none" id="usuarios/correo-usuarios" style="stroke:#181818;stroke-width:1;"/></g><!--link usuarios/contrase?a to usuarios--><g class="link" data-entity-1="ent0029" data-entity-2="ent0022" data-link-type="association" data-source-line="22" id="lnk30"><path d="M1628.62,161.48 C1648.39,170.79 1675.3,183.45 1699.04,194.57 C1720.69,204.72 1744.9,216.01 1764.5,225.16" fill="none" id="usuarios/contrase&#241;a-usuarios" style="stroke:#181818;stroke-width:1;"/></g><!--link roles/id to roles--><g class="link" data-entity-1="ent0032" data-entity-2="ent0031" data-link-type="association" data-source-line="26" id="lnk33"><path d="M2679.04,160.83 C2679.04,177.16 2679.04,205.49 2679.04,224.27" fill="none" id="roles/id-roles" style="stroke:#181818;stroke-width:1;"/></g><!--link roles/nombre to roles--><g class="link" data-entity-1="ent0034" data-entity-2="ent0031" data-link-type="association" data-source-line="27" id="lnk35"><path d="M2756.66,162.87 C2740.69,179.37 2714.87,206.07 2697.44,224.09" fill="none" id="roles/nombre-roles" style="stroke:#181818;stroke-width:1;"/></g><!--link tunkunias/id to tunkunias--><g class="link" data-entity-1="ent0037" data-entity-2="ent0036" data-link-type="association" data-source-line="31" id="lnk38"><path d="M986.91,156.12 C1010.66,171.07 1061.95,203.37 1094.9,224.13" fill="none" id="tunkunias/id-tunkunias" style="stroke:#181818;stroke-width:1;"/></g><!--link tunkunias/marking to tunkunias--><g class="link" data-entity-1="ent0039" data-entity-2="ent0036" data-link-type="association" data-source-line="32" id="lnk40"><path d="M1076.36,163.29 C1086.48,179.88 1102.65,206.39 1113.55,224.26" fill="none" id="tunkunias/marking-tunkunias" style="stroke:#181818;stroke-width:1;"/></g><!--link tunkunias/eventos to tunkunias--><g class="link" data-entity-1="ent0041" data-entity-2="ent0036" data-link-type="association" data-source-line="33" id="lnk42"><path d="M1174.56,163.29 C1164.27,179.88 1147.82,206.39 1136.73,224.26" fill="none" id="tunkunias/eventos-tunkunias" style="stroke:#181818;stroke-width:1;"/></g><!--link tunkunias/estado to tunkunias--><g class="link" data-entity-1="ent0043" data-entity-2="ent0036" data-link-type="association" data-source-line="34" id="lnk44"><path d="M1271.42,160.25 C1242.8,176.45 1192.03,205.19 1158.45,224.19" fill="none" id="tunkunias/estado-tunkunias" style="stroke:#181818;stroke-width:1;"/></g><!--link instancia to tramites--><g class="link" data-entity-1="ent0045" data-entity-2="ent0002" data-link-type="association" data-source-line="48" id="lnk50"><path d="M534.53,40.21 C415.49,44.71 141.86,62.38 85.04,130.45 C6,225.13 268.64,240.32 369.36,242.69" fill="none" id="instancia-tramites" style="stroke:#181818;stroke-width:1;"/><text fill="#000000" font-family="sans-serif" font-size="11" lengthAdjust="spacing" textLength="6.2919" x="86.04" y="151.7689">1</text></g><!--link instancia to tunkunias--><g class="link" data-entity-1="ent0045" data-entity-2="ent0036" data-link-type="association" data-source-line="49" id="lnk51"><path d="M619.55,52.89 C679.59,81.61 814.3,145.49 862.04,163.57 C938.1,192.37 1029.51,218.09 1082.08,232.06" fill="none" id="instancia-tunkunias" style="stroke:#181818;stroke-width:1;"/><text fill="#000000" font-family="sans-serif" font-size="11" lengthAdjust="spacing" textLength="8.3599" x="863.04" y="151.7689">N</text></g><!--link cumple to usuarios--><g class="link" data-entity-1="ent0047" data-entity-2="ent0022" data-link-type="association" data-source-line="50" id="lnk52"><path d="M2411.74,48.58 C2358.67,64.5 2251.84,97.45 2163.04,130.45 C2127.35,143.71 2119.98,151 2084.04,163.57 C1998.85,193.37 1896.28,220.18 1841.68,233.75" fill="none" id="cumple-usuarios" style="stroke:#181818;stroke-width:1;"/><text fill="#000000" font-family="sans-serif" font-size="11" lengthAdjust="spacing" textLength="8.3599" x="2164.04" y="151.7689">N</text></g><!--link cumple to roles--><g class="link" data-entity-1="ent0047" data-entity-2="ent0031" data-link-type="association" data-source-line="51" id="lnk53"><path d="M2467.15,54.11 C2491.96,71.68 2533.03,101.71 2566.04,130.45 C2601.77,161.55 2640.19,201.37 2661.76,224.38" fill="none" id="cumple-roles" style="stroke:#181818;stroke-width:1;"/><text fill="#000000" font-family="sans-serif" font-size="11" lengthAdjust="spacing" textLength="8.3599" x="2602.87" y="151.7689">N</text></g><!--link pertenece to resources--><g class="link" data-entity-1="ent0046" data-entity-2="ent0015" data-link-type="association" data-source-line="52" id="lnk54"><path d="M2070.82,43.07 C2133.54,50.78 2237.04,72.05 2303.04,130.45 C2331.43,155.57 2345.36,199.4 2351.3,224.34" fill="none" id="pertenece-resources" style="stroke:#181818;stroke-width:1;"/><text fill="#000000" font-family="sans-serif" font-size="11" lengthAdjust="spacing" textLength="8.3599" x="2329.59" y="151.7689">N</text></g><!--link pertenece to usuarios--><g class="link" data-entity-1="ent0046" data-entity-2="ent0022" data-link-type="association" data-source-line="53" id="lnk55"><path d="M1971.25,47.05 C1925.39,57.92 1856.54,81.66 1820.04,130.45 C1799.42,158 1798.98,200.15 1800.81,224.32" fill="none" id="pertenece-usuarios" style="stroke:#181818;stroke-width:1;"/><text fill="#000000" font-family="sans-serif" font-size="11" lengthAdjust="spacing" textLength="8.3599" x="1821.04" y="151.7689">N</text></g><!--link ejecuta to tunkunias--><g class="link" data-entity-1="ent0048" data-entity-2="ent0036" data-link-type="association" data-source-line="54" id="lnk56"><path d="M1538.12,53.8 C1499.45,78.81 1418.28,129.49 1345.04,163.57 C1285.39,191.33 1213.13,215.8 1168.11,230.04" fill="none" id="ejecuta-tunkunias" style="stroke:#181818;stroke-width:1;"/><text fill="#000000" font-family="sans-serif" font-size="11" lengthAdjust="spacing" textLength="8.3599" x="1410.48" y="151.7689">N</text></g><!--link ejecuta to usuarios--><g class="link" data-entity-1="ent0048" data-entity-2="ent0022" data-link-type="association" data-source-line="55" id="lnk57"><path d="M1581.41,55.12 C1603.97,73.34 1641.33,103.73 1673.04,130.45 C1711.64,162.97 1755.93,201.65 1781.58,224.18" fill="none" id="ejecuta-usuarios" style="stroke:#181818;stroke-width:1;"/><text fill="#000000" font-family="sans-serif" font-size="11" lengthAdjust="spacing" textLength="6.2919" x="1712.02" y="151.7689">1</text></g><!--link define to tramites--><g class="link" data-entity-1="ent0049" data-entity-2="ent0002" data-link-type="association" data-source-line="56" id="lnk58"><path d="M1063.33,52.26 C1009.26,84.49 877.31,163.11 876.04,163.57 C722.75,219.91 526.43,236.67 445.03,241.38" fill="none" id="define-tramites" style="stroke:#181818;stroke-width:1;"/><text fill="#000000" font-family="sans-serif" font-size="11" lengthAdjust="spacing" textLength="6.2919" x="932.19" y="151.7689">1</text></g><!--link define to resources--><g class="link" data-entity-1="ent0049" data-entity-2="ent0015" data-link-type="association" data-source-line="57" id="lnk59"><path d="M1129.76,41.84 C1302.18,54.31 1929.69,101.28 2014.04,130.45 C2039.94,139.4 2041,152.45 2066.04,163.57 C2149.75,200.74 2254.95,224.4 2312.53,235.55" fill="none" id="define-resources" style="stroke:#181818;stroke-width:1;"/><text fill="#000000" font-family="sans-serif" font-size="11" lengthAdjust="spacing" textLength="8.3599" x="2067.04" y="151.7689">N</text></g><?plantuml-src VL9HRi8m3FtFAN81qE1ZNmXnWbrX2ea1hwbTESacX7QeQKVWOdDRA2rCVCLvVdv-Th99sKds1o2JAgJ6YQljrlbgBrmeU8uiDekZf2cWF6AbWmlyXRItEnSJ6ADfpCUMNME6P4_6MWnsjQhWk5xhXRZU2cWG87d1nkFvb_IQiM4zGBs4DcY4FGIiKHNPV0_A0ecB-AVIEumPv5rA1Asy59PKd22djkokS5HghMSHu4j8EaY2yuyRE-08JrLkr5oeAeJkVthjH1UvxsBuRETCVTplG6K4eil8b0xOM2J5oQCxQMgIQK0o47XuoFXID_4HXW_m9JyA1TWXTNGpTBEpnMnupp7yDhlDP_f67NXTz1ZhTcO6dprsVSaxVAY_kBphDA2B4RKtFhLwnIQjDg0VkltfPZ5VlYnVvyi_?></g></svg>
