<svg xmlns="http://www.w3.org/2000/svg" xmlns:xlink="http://www.w3.org/1999/xlink" contentStyleType="text/css" data-diagram-type="DESCRIPTION" height="402px" preserveAspectRatio="none" style="width:389px;height:402px;background:#FFFFFF;" version="1.1" viewBox="0 0 389 402" width="389px" zoomAndPan="magnify"><?plantuml $version$?><defs/><g><!--cluster Catalogue--><g class="cluster" data-qualified-name="Catalogue" data-source-line="3" id="ent0002"><path d="M148.69,6.602 L220.7537,6.602 A3.75,3.75 0 0 1 223.2537,9.102 L230.2537,31.6699 L362.32,31.6699 A2.5,2.5 0 0 1 364.82,34.1699 L364.82,261.102 A2.5,2.5 0 0 1 362.32,263.602 L148.69,263.602 A2.5,2.5 0 0 1 146.19,261.102 L146.19,9.102 A2.5,2.5 0 0 1 148.69,6.602" fill="none" style="stroke:#000000;stroke-width:1.5;"/><line style="stroke:#000000;stroke-width:1.5;" x1="146.19" x2="230.2537" y1="31.6699" y2="31.6699"/><text fill="#000000" font-family="sans-serif" font-size="14" font-weight="700" lengthAdjust="spacing" textLength="71.0637" x="150.19" y="23.5679">Catalogue</text></g><!--cluster gob.bo--><g class="cluster" data-qualified-name="gob.bo" data-source-line="9" id="ent0007"><path d="M139,287.602 L187.9778,287.602 A3.75,3.75 0 0 1 190.4778,290.102 L197.4778,312.6699 L372.01,312.6699 A2.5,2.5 0 0 1 374.51,315.1699 L374.51,385.102 A2.5,2.5 0 0 1 372.01,387.602 L139,387.602 A2.5,2.5 0 0 1 136.5,385.102 L136.5,290.102 A2.5,2.5 0 0 1 139,287.602" fill="none" style="stroke:#000000;stroke-width:1.5;"/><line style="stroke:#000000;stroke-width:1.5;" x1="136.5" x2="197.4778" y1="312.6699" y2="312.6699"/><text fill="#000000" font-family="sans-serif" font-size="14" font-weight="700" lengthAdjust="spacing" textLength="47.9778" x="140.5" y="304.5679">gob.bo</text></g><!--entity st--><g class="entity" data-qualified-name="Catalogue.st" data-source-line="4" id="ent0003"><ellipse cx="255.5099" cy="159.602" fill="#F1F1F1" rx="83.4499" ry="19.09" style="stroke:#181818;stroke-width:0.5;"/><text fill="#000000" font-family="sans-serif" font-size="14" lengthAdjust="spacing" textLength="129.6115" x="190.7042" y="165.6359">Seleccionar Tr&#225;mite</text></g><!--entity bt--><g class="entity" data-qualified-name="Catalogue.bt" data-source-line="5" id="ent0004"><ellipse cx="255.5111" cy="230.6042" fill="#F1F1F1" rx="71.9111" ry="16.7822" style="stroke:#181818;stroke-width:0.5;"/><text fill="#000000" font-family="sans-serif" font-size="14" lengthAdjust="spacing" textLength="99.5256" x="205.7483" y="236.6382">Buscar Tr&#225;mite</text></g><!--entity vt--><g class="entity" data-qualified-name="Catalogue.vt" data-source-line="6" id="ent0005"><ellipse cx="255.5075" cy="65.6055" fill="#F1F1F1" rx="93.3175" ry="21.0635" style="stroke:#181818;stroke-width:0.5;"/><text fill="#000000" font-family="sans-serif" font-size="14" lengthAdjust="spacing" textLength="153.4254" x="178.7948" y="71.6394">Ver Detalles de Tr&#225;mite</text></g><!--entity gbst--><g class="entity" data-qualified-name="gob.bo.gbst" data-source-line="10" id="ent0008"><ellipse cx="255.5052" cy="348.603" fill="#F1F1F1" rx="103.0052" ry="23.001" style="stroke:#181818;stroke-width:0.5;"/><text fill="#000000" font-family="sans-serif" font-size="14" lengthAdjust="spacing" textLength="175.8253" x="167.5926" y="354.637">Seleccionar Tr&#225;mite Digital</text></g><!--entity g--><g class="entity" data-qualified-name="g" data-source-line="2" id="ent0001"><ellipse cx="25.2499" cy="199.572" fill="#F1F1F1" rx="8" ry="8" style="stroke:#181818;stroke-width:0.5;"/><path d="M25.2499,207.572 L25.2499,234.572 M12.2499,215.572 L38.2499,215.572 M25.2499,234.572 L12.2499,249.572 M25.2499,234.572 L38.2499,249.572" fill="none" style="stroke:#181818;stroke-width:0.5;"/><text fill="#000000" font-family="sans-serif" font-size="14" lengthAdjust="spacing" textLength="38.4998" x="6" y="266.0379">Guest</text></g><!--link st to vt--><g class="link" data-entity-1="ent0003" data-entity-2="ent0005" data-link-type="dependency" data-source-line="7" id="lnk6"><path d="M255.51,140.122 C255.51,124.642 255.51,107.992 255.51,92.022" fill="none" id="st-to-vt" style="stroke:#181818;stroke-width:1;stroke-dasharray:7,7;"/><polygon fill="#181818" points="255.51,87.022,251.51,96.022,255.51,92.022,259.51,96.022,255.51,87.022" style="stroke:#181818;stroke-width:1;stroke-linejoin:miter;stroke-miterlimit:10;"/><text fill="#000000" font-family="sans-serif" font-size="13" lengthAdjust="spacing" textLength="44.343" x="221.01" y="118.989">include</text></g><!--link gbst to vt--><g class="link" data-entity-1="ent0008" data-entity-2="ent0005" data-link-type="dependency" data-source-line="12" id="lnk9"><path d="M209.48,327.592 C159.27,301.172 87.63,251.372 100.83,187.102 C107.11,156.552 106.63,144.842 128.5,122.602 C146.8,103.992 167.5966,92.7195 190.9166,83.8495" fill="none" id="gbst-to-vt" style="stroke:#181818;stroke-width:1;stroke-dasharray:7,7;"/><polygon fill="#181818" points="195.59,82.072,185.7559,81.5329,190.9166,83.8495,188.6,89.0103,195.59,82.072" style="stroke:#181818;stroke-width:1;stroke-linejoin:miter;stroke-miterlimit:10;"/><text fill="#000000" font-family="sans-serif" font-size="13" lengthAdjust="spacing" textLength="44.343" x="75.5" y="201.999">include</text></g><!--link g to st--><g class="link" data-entity-1="ent0001" data-entity-2="ent0003" data-link-type="dependency" data-source-line="13" id="lnk10"><path d="M44.59,207.172 C52.78,198.352 63.14,189.122 74.5,183.602 C104.27,169.132 134.9293,162.9308 166.5993,160.1408" fill="none" id="g-to-st" style="stroke:#181818;stroke-width:1;"/><polygon fill="#181818" points="171.58,159.702,162.2637,156.5072,166.5993,160.1408,162.9657,164.4764,171.58,159.702" style="stroke:#181818;stroke-width:1;stroke-linejoin:miter;stroke-miterlimit:10;"/></g><!--link g to bt--><g class="link" data-entity-1="ent0001" data-entity-2="ent0004" data-link-type="dependency" data-source-line="14" id="lnk11"><path d="M44.93,230.602 C74.85,230.602 130.05,230.602 178.29,230.602" fill="none" id="g-to-bt" style="stroke:#181818;stroke-width:1;"/><polygon fill="#181818" points="183.29,230.602,174.29,226.602,178.29,230.602,174.29,234.602,183.29,230.602" style="stroke:#181818;stroke-width:1;stroke-linejoin:miter;stroke-miterlimit:10;"/></g><!--link g to gbst--><g class="link" data-entity-1="ent0001" data-entity-2="ent0008" data-link-type="dependency" data-source-line="15" id="lnk12"><path d="M44.93,240.262 C81.56,259.192 159.1285,299.2956 209.0085,325.0856" fill="none" id="g-to-gbst" style="stroke:#181818;stroke-width:1;"/><polygon fill="#181818" points="213.45,327.382,207.2925,319.6953,209.0085,325.0856,203.6183,326.8016,213.45,327.382" style="stroke:#181818;stroke-width:1;stroke-linejoin:miter;stroke-miterlimit:10;"/></g><?plantuml-src XO-z3S8m48LxJ_54dmn0GG6H6014RryEOs4miiyqACCm2ujXWq042gfxnVT-plDM807HsPsWTv59N3WgJH8YbfcJG2TOTTAqrvQnqA9zi9bnKK1EJ3en9YlsJ5ISEc8TRzU34vvKPv9FR9uJVHDcH6muekFIuJcXvp5whcXPrCwAn1JkI3xth8RtF1jCQyB_RUYSTQNb4MjDMJceUdwYBPfcLhzu2lCI5Ru3?></g></svg>